<?xml version="1.0" encoding="UTF-8"?>
<svg version="1.1" xmlns="http://www.w3.org/2000/svg" width="768" height="512">
<path d="M0 0 C253.44 0 506.88 0 768 0 C768 168.96 768 337.92 768 512 C514.56 512 261.12 512 0 512 C0 343.04 0 174.08 0 0 Z " fill="#030C20" transform="translate(0,0)"/>
<path d="M0 0 C2.64 0 5.28 0 8 0 C8.33 4.62 8.66 9.24 9 14 C10.32 13.01 11.64 12.02 13 11 C18.00362068 10.45415047 21.02238851 10.88241262 25 14 C29.52959429 19.03288254 30.35824592 22.88978755 30.28125 29.4921875 C29.74935905 34.23488184 27.31691405 36.87121653 23.8125 39.875 C19.9054114 41.43783544 16.16052196 41.59992545 12 41 C11.01 40.34 10.02 39.68 9 39 C8.67 39.66 8.34 40.32 8 41 C5.36 41 2.72 41 0 41 C0 27.47 0 13.94 0 0 Z " fill="#F1F1F2" transform="translate(381,237)"/>
<path d="M0 0 C2.31 0 4.62 0 7 0 C7.33 4.29 7.66 8.58 8 13 C8.825 12.484375 9.65 11.96875 10.5 11.4375 C14.77179811 9.68301149 17.61679346 9.65340665 22 11 C25.23551706 13.11011982 26.85394116 14.78091174 29 18 C29.30078125 20.9609375 29.30078125 20.9609375 29.3125 24.375 C29.32925781 25.49648438 29.34601563 26.61796875 29.36328125 27.7734375 C28.82913792 32.51754922 26.65198221 35.95668149 23 39 C20.23952457 39.92015848 18.36637731 40.19267245 15.5 40.25 C14.7265625 40.27578125 13.953125 40.3015625 13.15625 40.328125 C10.51169162 39.9256922 9.66759198 39.03104151 8 37 C7.67 37.66 7.34 38.32 7 39 C4.69 39 2.38 39 0 39 C0 26.13 0 13.26 0 0 Z " fill="#F9F9F9" transform="translate(347,238)"/>
<path d="M0 0 C3.3 0 6.6 0 10 0 C9.34817318 6.64107614 7.3359231 12.72467832 5.3125 19.0625 C2.64113679 27.56403408 0.10013558 36.07464331 -2.1875 44.6875 C-4.17549751 52.15117479 -6.38491207 59.47207616 -8.90234375 66.7734375 C-10.19237071 70.56547404 -11.32838882 74.38955596 -12.421875 78.2421875 C-13 80 -13 80 -14 81 C-15.51928038 81.07179964 -17.04167482 81.08392007 -18.5625 81.0625 C-19.80193359 81.04896484 -19.80193359 81.04896484 -21.06640625 81.03515625 C-22.02353516 81.01775391 -22.02353516 81.01775391 -23 81 C-22.45899851 75.78930147 -21.59146025 71.18302061 -19.9375 66.1875 C-17.51546052 58.72448261 -15.27284735 51.21577547 -13.0625 43.6875 C-10.45392936 34.82559905 -7.76693363 25.99676546 -4.95092773 17.19873047 C-3.13648612 11.50564187 -1.50854578 5.78275884 0 0 Z " fill="#EFB118" transform="translate(212,216)"/>
<path d="M0 0 C5.42638211 0.34436656 8.54938422 3.56096624 12.5 6.9375 C13.91631665 8.12696996 15.33431103 9.31444484 16.75390625 10.5 C17.4617627 11.09167969 18.16961914 11.68335938 18.89892578 12.29296875 C20.86013254 13.88636378 22.85512927 15.39450482 24.90234375 16.875 C25.79953125 17.52867554 25.79953125 17.52867554 26.71484375 18.19555664 C28.34253081 19.36903227 29.9814941 20.52682099 31.62109375 21.68359375 C34 24 34 24 35.16015625 26.97265625 C35 30 35 30 33.04296875 32.48046875 C32.03878906 33.31191406 31.03460938 34.14335937 30 35 C29.42072754 35.48807129 28.84145508 35.97614258 28.24462891 36.47900391 C26.28632056 38.11507828 24.30384607 39.71683392 22.3125 41.3125 C20.8867017 42.45831212 19.46092044 43.60414543 18.03515625 44.75 C17.00092529 45.57951172 17.00092529 45.57951172 15.94580078 46.42578125 C14.23788437 47.80754349 12.54970376 49.20792665 10.87109375 50.625 C10.00613281 51.346875 9.14117187 52.06875 8.25 52.8125 C7.51265625 53.43769531 6.7753125 54.06289063 6.015625 54.70703125 C4 56 4 56 0 56 C-1.25858966 46.78190846 -1.25858966 46.78190846 1.54541016 42.81201172 C3.70885491 40.84677631 5.93022264 39.1303228 8.3125 37.4375 C9.09818359 36.83615234 9.88386719 36.23480469 10.69335938 35.61523438 C13.73351147 33.30471878 16.82270211 31.11819859 20 29 C18.61777057 25.77916109 17.11581014 24.00005825 14.375 21.8359375 C13.66859375 21.27132812 12.9621875 20.70671875 12.234375 20.125 C11.49703125 19.5475 10.7596875 18.97 10 18.375 C8.54100135 17.21698359 7.08263901 16.05816489 5.625 14.8984375 C4.97789062 14.38974121 4.33078125 13.88104492 3.6640625 13.35693359 C2 12 2 12 0 10 C-0.1953125 7.6171875 -0.1953125 7.6171875 -0.125 4.875 C-0.10695312 3.96492187 -0.08890625 3.05484375 -0.0703125 2.1171875 C-0.04710937 1.41851562 -0.02390625 0.71984375 0 0 Z " fill="#F1B218" transform="translate(230,228)"/>
<path d="M0 0 C2.64 0 5.28 0 8 0 C8 13.2 8 26.4 8 40 C5.36 40 2.72 40 0 40 C0 34.72 0 29.44 0 24 C-5.61 24 -11.22 24 -17 24 C-17 29.28 -17 34.56 -17 40 C-19.64 40 -22.28 40 -25 40 C-25 27.13 -25 14.26 -25 1 C-22.69 1 -20.38 1 -18 1 C-18 6.28 -18 11.56 -18 17 C-12.06 17 -6.12 17 0 17 C0 11.39 0 5.78 0 0 Z " fill="#F0F0F1" transform="translate(488,238)"/>
<path d="M0 0 C4.42786764 2.86398247 6.42156233 5.99937442 7.8984375 11.125 C8.56012706 15.39289765 8.23853757 18.46999245 6.2109375 22.375 C0.74933055 28.86988394 0.74933055 28.86988394 -3.87890625 29.5078125 C-8.71447298 29.68712894 -12.22618449 29.52429523 -16.6640625 27.5 C-20.99674023 23.27841657 -22.29653484 19.64961531 -22.6640625 13.6875 C-22.53342438 8.6407431 -21.27921439 6.0534334 -17.8046875 2.46484375 C-12.63266937 -1.60396867 -6.16217582 -2.56566428 0 0 Z " fill="#F4F4F4" transform="translate(523.1015625,248.875)"/>
<path d="M0 0 C0.65975426 3.51135878 0.77869017 6.49834295 0 10 C-2.82397973 13.66337923 -6.29507956 16.26413405 -10 19 C-11.54107422 20.15822266 -11.54107422 20.15822266 -13.11328125 21.33984375 C-15.71884888 23.26275942 -18.3443694 25.14711705 -21 27 C-18.18765805 30.00648785 -15.35789804 32.54135306 -12.01171875 34.9453125 C-0.53927482 43.29734581 -0.53927482 43.29734581 1.04296875 48.29296875 C1.00389809 51.03857058 0.75992565 53.36664654 0 56 C-4.17884946 55.4822019 -6.16738281 54.33295944 -9.1875 51.4375 C-12.35385531 48.49656403 -15.55263056 45.68767149 -18.9375 43 C-19.75863281 42.34257812 -20.57976562 41.68515625 -21.42578125 41.0078125 C-23.21061577 39.61569574 -25.02291112 38.25835445 -26.85546875 36.9296875 C-27.76941406 36.25164062 -28.68335938 35.57359375 -29.625 34.875 C-30.46289062 34.27429688 -31.30078125 33.67359375 -32.1640625 33.0546875 C-34 31 -34 31 -34.5 27.98828125 C-33.9004473 24.40501707 -33.16336979 23.56854465 -30.375 21.3125 C-29.5603125 20.64089844 -28.745625 19.96929687 -27.90625 19.27734375 C-26.9471875 18.52582031 -25.988125 17.77429688 -25 17 C-23.84358718 16.08484113 -22.68734576 15.16946564 -21.53125 14.25390625 C-19.70532473 12.8123863 -17.87616953 11.37590604 -16.03710938 9.95117188 C-12.87828089 7.50351134 -9.8303099 5.0066726 -6.875 2.3125 C-4 0 -4 0 0 0 Z " fill="#F2B218" transform="translate(178,228)"/>
<path d="M0 0 C3.11302472 1.70693162 4.81813778 3.23892543 6.796875 6.20703125 C6.921875 8.89453125 6.921875 8.89453125 6.796875 11.20703125 C4.156875 11.20703125 1.516875 11.20703125 -1.203125 11.20703125 C-1.863125 9.88703125 -2.523125 8.56703125 -3.203125 7.20703125 C-6.173125 7.20703125 -9.143125 7.20703125 -12.203125 7.20703125 C-12.533125 9.18703125 -12.863125 11.16703125 -13.203125 13.20703125 C-12.56246094 13.38878906 -11.92179687 13.57054687 -11.26171875 13.7578125 C3.56364378 18.06622635 3.56364378 18.06622635 6.796875 22.20703125 C7.69524789 26.98216641 7.50384651 31.03687151 4.984375 35.20703125 C-0.15628794 39.90706594 -4.06740788 39.62158421 -10.80078125 39.53125 C-15.253106 39.10697565 -17.03379497 38.28832434 -20.203125 35.20703125 C-22.3550687 31.9791157 -22.40398943 30.92302316 -22.203125 27.20703125 C-19.563125 27.20703125 -16.923125 27.20703125 -14.203125 27.20703125 C-13.914375 27.84640625 -13.625625 28.48578125 -13.328125 29.14453125 C-12.37489049 31.35909204 -12.37489049 31.35909204 -10.203125 32.20703125 C-6.15170381 32.4656326 -4.65974831 32.51144679 -1.203125 30.20703125 C-1.698125 27.73203125 -1.698125 27.73203125 -2.203125 25.20703125 C-3.41548828 24.82611328 -3.41548828 24.82611328 -4.65234375 24.4375 C-5.72097656 24.09332031 -6.78960937 23.74914062 -7.890625 23.39453125 C-8.94636719 23.05808594 -10.00210937 22.72164063 -11.08984375 22.375 C-14.72663038 21.01063463 -18.090086 19.63808139 -20.515625 16.51953125 C-21.54675081 13.05119898 -21.78230012 9.7597762 -21.203125 6.20703125 C-16.57012906 -1.40431922 -8.22954615 -2.96205296 0 0 Z " fill="#F3F3F4" transform="translate(304.203125,238.79296875)"/>
<path d="M0 0 C0.72703125 -0.06058594 1.4540625 -0.12117187 2.203125 -0.18359375 C6.44309282 0.85038613 9.2892526 2.80973491 11.75 6.4375 C12.59787035 10.5979887 12.41386216 14.58873143 12.1875 18.8125 C12.15591797 19.93011719 12.12433594 21.04773438 12.09179688 22.19921875 C12.00956761 24.94802572 11.89471617 27.69139136 11.75 30.4375 C8.08333333 30.4375 4.41666667 30.4375 0.75 30.4375 C-0.02214844 30.48390625 -0.79429687 30.5303125 -1.58984375 30.578125 C-8.65145985 30.8754562 -8.65145985 30.8754562 -11.8125 28.5625 C-14.43048022 24.69244229 -14.65553088 22.14165824 -14.25 17.4375 C-12.03136971 14.53032927 -10.73055071 13.59768357 -7.25 12.4375 C-5.35529184 12.3689505 -3.4583166 12.35269628 -1.5625 12.375 C-0.56863281 12.38402344 0.42523437 12.39304687 1.44921875 12.40234375 C2.58810547 12.41974609 2.58810547 12.41974609 3.75 12.4375 C3.75 10.7875 3.75 9.1375 3.75 7.4375 C1.11 7.4375 -1.53 7.4375 -4.25 7.4375 C-4.58 8.0975 -4.91 8.7575 -5.25 9.4375 C-7.56 9.4375 -9.87 9.4375 -12.25 9.4375 C-11.9155974 6.34427596 -11.6904882 4.84862232 -9.375 2.6875 C-6.29296418 0.87453775 -3.5255874 0.20339927 0 0 Z " fill="#F1F2F2" transform="translate(620.25,247.5625)"/>
<path d="M0 0 C3.68623011 1.61272567 4.75355 2.630325 7 6 C7.22705078 8.54370117 7.22705078 8.54370117 7.1953125 11.54296875 C7.18886719 12.61611328 7.18242187 13.68925781 7.17578125 14.79492188 C7.15902344 15.91447266 7.14226562 17.03402344 7.125 18.1875 C7.11597656 19.31865234 7.10695313 20.44980469 7.09765625 21.61523438 C7.07406862 24.41036828 7.041153 27.20507845 7 30 C4.69 30 2.38 30 0 30 C0 29.01 0 28.02 0 27 C-0.66 27 -1.32 27 -2 27 C-2 27.66 -2 28.32 -2 29 C-5.72789104 30.86394552 -9.94037972 30.55445363 -14 30 C-17.125 27.9375 -17.125 27.9375 -19 25 C-19.625 21.5 -19.625 21.5 -19 18 C-16.8272578 15.36983839 -15.05326212 13.52663106 -12 12 C-10.12620395 11.92966231 -8.24998898 11.9156978 -6.375 11.9375 C-4.87066406 11.95103516 -4.87066406 11.95103516 -3.3359375 11.96484375 C-2.56507813 11.97644531 -1.79421875 11.98804688 -1 12 C-1.33 10.35 -1.66 8.7 -2 7 C-4.91652174 6.83318891 -4.91652174 6.83318891 -8 7 C-8.66 7.66 -9.32 8.32 -10 9 C-13.625 9.125 -13.625 9.125 -17 9 C-16.80037128 5.40668306 -16.21261372 4.20171045 -13.5625 1.6875 C-8.89510165 -0.5233729 -5.08202703 -0.71267157 0 0 Z " fill="#F2F2F2" transform="translate(334,248)"/>
<path d="M0 0 C3.60408126 1.41610613 5.67891926 3.47729786 7.31640625 6.91015625 C7.91004894 10.89090309 7.78953267 14.77196688 7.62890625 18.78515625 C7.60634766 19.85507812 7.58378906 20.925 7.56054688 22.02734375 C7.50186258 24.65640032 7.41981805 27.28254207 7.31640625 29.91015625 C4.67640625 29.91015625 2.03640625 29.91015625 -0.68359375 29.91015625 C-0.7086499 29.27924072 -0.73370605 28.6483252 -0.75952148 27.99829102 C-0.87513512 25.156188 -0.99801691 22.31444542 -1.12109375 19.47265625 C-1.16041016 18.47943359 -1.19972656 17.48621094 -1.24023438 16.46289062 C-1.28212891 15.51865234 -1.32402344 14.57441406 -1.3671875 13.6015625 C-1.40384521 12.72701416 -1.44050293 11.85246582 -1.47827148 10.95141602 C-1.46540441 8.91741605 -1.46540441 8.91741605 -2.68359375 7.91015625 C-5.64176482 7.66010239 -5.64176482 7.66010239 -8.68359375 7.91015625 C-11.12273867 10.34930117 -10.97021898 11.12462056 -11.09765625 14.48046875 C-11.13632812 15.37636719 -11.175 16.27226562 -11.21484375 17.1953125 C-11.24578125 18.13246094 -11.27671875 19.06960938 -11.30859375 20.03515625 C-11.34726562 20.98003906 -11.3859375 21.92492187 -11.42578125 22.8984375 C-11.52020721 25.23548 -11.60577769 27.57251126 -11.68359375 29.91015625 C-13.99359375 29.91015625 -16.30359375 29.91015625 -18.68359375 29.91015625 C-18.68359375 20.34015625 -18.68359375 10.77015625 -18.68359375 0.91015625 C-16.37359375 0.91015625 -14.06359375 0.91015625 -11.68359375 0.91015625 C-11.35359375 1.57015625 -11.02359375 2.23015625 -10.68359375 2.91015625 C-9.97203125 2.13671875 -9.97203125 2.13671875 -9.24609375 1.34765625 C-5.91940192 -0.51853673 -3.72113581 -0.25239008 0 0 Z " fill="#F4F4F4" transform="translate(656.68359375,248.08984375)"/>
<path d="M0 0 C2.8296457 1.37424476 3.91168723 2.51660103 6 5 C6 6.32 6 7.64 6 9 C3.125 9.125 3.125 9.125 0 9 C-0.66 8.34 -1.32 7.68 -2 7 C-5.58343976 6.83322718 -5.58343976 6.83322718 -9 7 C-9 7.99 -9 8.98 -9 10 C-8.18015625 10.17015625 -7.3603125 10.3403125 -6.515625 10.515625 C-4.89914062 10.87914062 -4.89914062 10.87914062 -3.25 11.25 C-2.18265625 11.48203125 -1.1153125 11.7140625 -0.015625 11.953125 C3.32491036 13.11279272 4.83921544 14.22699315 7 17 C7.61447856 21.22454007 7.47763281 23.24237555 5.1875 26.875 C1.07399236 30.87097885 -3.66340116 30.33656819 -9.10546875 30.27734375 C-12 30 -12 30 -15.1875 28.375 C-17.34119266 25.55291996 -17.76065097 23.51045242 -18 20 C-15.69 20 -13.38 20 -11 20 C-11 20.99 -11 21.98 -11 23 C-7.7 23.33 -4.4 23.66 -1 24 C-1 22.35 -1 20.7 -1 19 C-1.66386719 18.97421875 -2.32773437 18.9484375 -3.01171875 18.921875 C-8.51766256 18.56820854 -12.04186392 18.2134997 -16 14 C-17.58939347 10.82121306 -17.41576711 8.5043228 -17 5 C-12.44598799 -0.78482606 -7.07530803 -1.32072417 0 0 Z " fill="#F1F1F2" transform="translate(552,248)"/>
<path d="M0 0 C3.74030185 1.60298651 4.73158465 2.59737698 7 6 C7 6.99 7 7.98 7 9 C3.625 9.125 3.625 9.125 0 9 C-0.66 8.34 -1.32 7.68 -2 7 C-5.58343976 6.83322718 -5.58343976 6.83322718 -9 7 C-9 7.99 -9 8.98 -9 10 C-8.18015625 10.17015625 -7.3603125 10.3403125 -6.515625 10.515625 C-4.89914062 10.87914062 -4.89914062 10.87914062 -3.25 11.25 C-2.18265625 11.48203125 -1.1153125 11.7140625 -0.015625 11.953125 C3.32491036 13.11279272 4.83921544 14.22699315 7 17 C7.61447856 21.22454007 7.47763281 23.24237555 5.1875 26.875 C1.395881 30.55828703 -2.47541869 30.27729438 -7.48828125 30.21875 C-10.91221071 29.92055397 -13.19348889 28.96455778 -16 27 C-17.80935423 24.36821203 -18 23.2388234 -18 20 C-14.625 19.8125 -14.625 19.8125 -11 20 C-10.34 20.99 -9.68 21.98 -9 23 C-7.02252878 23.36297936 -7.02252878 23.36297936 -4.875 23.1875 C-3.59625 23.125625 -2.3175 23.06375 -1 23 C-1 22.01 -1 21.02 -1 20 C-1.90363281 19.75765625 -2.80726563 19.5153125 -3.73828125 19.265625 C-5.50751953 18.76289063 -5.50751953 18.76289063 -7.3125 18.25 C-8.48425781 17.92515625 -9.65601563 17.6003125 -10.86328125 17.265625 C-14.19016662 15.92327026 -15.32249709 15.11452464 -17 12 C-17.5625 8.5625 -17.5625 8.5625 -17 5 C-12.36695934 -0.88521381 -7.16002084 -1.01506393 0 0 Z " fill="#F2F3F3" transform="translate(581,248)"/>
<path d="M0 0 C2.31 0 4.62 0 7 0 C7 0.99 7 1.98 7 3 C7.66 3 8.32 3 9 3 C9 2.34 9 1.68 9 1 C11.70879335 -0.35439668 14.00933268 -0.06501451 17 0 C17 2.31 17 4.62 17 7 C15.865625 7.309375 14.73125 7.61875 13.5625 7.9375 C10.21224901 8.62924531 10.21224901 8.62924531 9 10 C8.84379445 11.41327947 8.74943827 12.8335459 8.68359375 14.25390625 C8.64169922 15.10791016 8.59980469 15.96191406 8.55664062 16.84179688 C8.51732422 17.73962891 8.47800781 18.63746094 8.4375 19.5625 C8.39431641 20.46419922 8.35113281 21.36589844 8.30664062 22.29492188 C8.20021858 24.52978485 8.09820012 26.76476308 8 29 C5.36 29 2.72 29 0 29 C0 19.43 0 9.86 0 0 Z " fill="#F3F4F4" transform="translate(430,249)"/>
<path d="M0 0 C2.64 0 5.28 0 8 0 C8 9.57 8 19.14 8 29 C5.36 29 2.72 29 0 29 C0 19.43 0 9.86 0 0 Z " fill="#ECECED" transform="translate(593,249)"/>
<path d="M0 0 C2.31 0 4.62 0 7 0 C7 9.57 7 19.14 7 29 C4.69 29 2.38 29 0 29 C0 19.43 0 9.86 0 0 Z " fill="#FAFAFB" transform="translate(416,249)"/>
<path d="M0 0 C4.99268902 1.47931526 4.99268902 1.47931526 6.375 4 C7.12971698 10.79245283 7.12971698 10.79245283 4.8125 14.5 C1.39967068 16.60020266 -0.69188873 16.63210717 -4.625 16 C-7.5486459 13.4511805 -8.47409176 11.80484394 -9.1875 8 C-8.16441035 2.54352187 -5.57571613 0 0 0 Z " fill="#0B1122" transform="translate(516.625,255)"/>
<path d="M0 0 C3.8815279 0.7129337 5.49671091 1.5439246 8.0625 4.5625 C8.72267005 7.36391726 8.67234064 9.75493175 8.0625 12.5625 C6.5 15.0625 6.5 15.0625 4.0625 16.5625 C0.5625 17.125 0.5625 17.125 -2.9375 16.5625 C-5.87057135 14.00546344 -6.79847012 12.39667929 -7.4375 8.5625 C-6.63423804 3.74292821 -4.94321784 0.94657363 0 0 Z " fill="#0E1425" transform="translate(360.9375,254.4375)"/>
<path d="M0 0 C2.375 1.4375 2.375 1.4375 4 4 C4.49269345 7.06687831 4.62344409 9.95017891 4 13 C2.6875 14.75 2.6875 14.75 1 16 C-2.85985753 16.49125459 -5.08965651 16.56021138 -8.4375 14.5 C-10.63559176 10.98305319 -10.81157964 8.04133533 -10 4 C-7.31163109 -0.13595217 -4.79825109 -0.79970851 0 0 Z " fill="#0A1122" transform="translate(399,255)"/>
<path d="M0 0 C2.5 0.25 2.5 0.25 4.5 2.25 C4.75 4.75 4.75 4.75 4.5 7.25 C2.5 9.25 2.5 9.25 -0.5 9.5 C-3.5 9.25 -3.5 9.25 -5.5 7.25 C-5.08994391 3.14943907 -4.53376372 0.45337637 0 0 Z " fill="#E8E9EA" transform="translate(597.5,235.75)"/>
<path d="M0 0 C2.5 0.25 2.5 0.25 4.5 2.25 C4.6875 5.3125 4.6875 5.3125 4.5 8.25 C3.5 9.25 3.5 9.25 0.5625 9.4375 C-2.5 9.25 -2.5 9.25 -4.5 7.25 C-4.75 4.75 -4.75 4.75 -4.5 2.25 C-2.5 0.25 -2.5 0.25 0 0 Z " fill="#EFEFF0" transform="translate(419.5,235.75)"/>
<path d="M0 0 C0.125 2.375 0.125 2.375 0 5 C-2 7 -2 7 -5.5625 7.1875 C-9 7 -9 7 -10 6 C-10.04063832 4.33382885 -10.042721 2.66611905 -10 1 C-6.78548731 -0.60725635 -3.56387464 -0.05748185 0 0 Z " fill="#121827" transform="translate(624,265)"/>
<path d="M0 0 C2.01822917 0.06510417 4.03645833 0.13020833 6.0546875 0.1953125 C6.1796875 2.5703125 6.1796875 2.5703125 6.0546875 5.1953125 C4.0546875 7.1953125 4.0546875 7.1953125 0.4296875 7.3203125 C-0.6840625 7.2790625 -1.7978125 7.2378125 -2.9453125 7.1953125 C-3.5703125 4.8203125 -3.5703125 4.8203125 -3.9453125 2.1953125 C-1.9453125 0.1953125 -1.9453125 0.1953125 0 0 Z " fill="#121727" transform="translate(326.9453125,264.8046875)"/>
<path d="M0 0 C3.5625 0.1875 3.5625 0.1875 5.5625 2.1875 C6.87997324 2.88498583 8.21164193 3.55709957 9.5625 4.1875 C8.5725 4.1875 7.5825 4.1875 6.5625 4.1875 C6.8925 5.1775 7.2225 6.1675 7.5625 7.1875 C3.9325 6.5275 0.3025 5.8675 -3.4375 5.1875 C-3.7675 3.8675 -4.0975 2.5475 -4.4375 1.1875 C-3.4375 0.1875 -3.4375 0.1875 0 0 Z " fill="#101523" transform="translate(546.4375,253.8125)"/>
<path d="M0 0 C1.258125 -0.04125 2.51625 -0.0825 3.8125 -0.125 C4.52019531 -0.14820313 5.22789062 -0.17140625 5.95703125 -0.1953125 C8 0 8 0 11 2 C10.67 3.32 10.34 4.64 10 6 C7.36 6 4.72 6 2 6 C1.34 4.02 0.68 2.04 0 0 Z " fill="#060C1D" transform="translate(570,266)"/>
<path d="M0 0 C3.375 -0.125 3.375 -0.125 7 0 C7.66 0.66 8.32 1.32 9 2 C10.31747324 2.69748583 11.64914193 3.36959957 13 4 C7.40693931 6.05459372 4.59306069 6.05459372 -1 4 C-0.67 2.68 -0.34 1.36 0 0 Z " fill="#20232E" transform="translate(572,254)"/>
<path d="M0 0 C5.75 -0.125 5.75 -0.125 8 1 C7.67 2.32 7.34 3.64 7 5 C2.48382401 5.07654536 -1.59085217 5.10228696 -6 4 C-6 3.67 -6 3.34 -6 3 C-4.35 3 -2.7 3 -1 3 C-0.67 2.01 -0.34 1.02 0 0 Z " fill="#081023" transform="translate(616,254)"/>
<path d="M0 0 C1.4540625 0.0309375 1.4540625 0.0309375 2.9375 0.0625 C3.2675 0.7225 3.5975 1.3825 3.9375 2.0625 C3.6075 3.0525 3.2775 4.0425 2.9375 5.0625 C-1.57867599 5.13904536 -5.65335217 5.16478696 -10.0625 4.0625 C-10.0625 3.7325 -10.0625 3.4025 -10.0625 3.0625 C-8.6084375 2.5984375 -8.6084375 2.5984375 -7.125 2.125 C-1.0625 0.02168367 -1.0625 0.02168367 0 0 Z " fill="#161C2C" transform="translate(329.0625,253.9375)"/>
<path d="M0 0 C2.31 0 4.62 0 7 0 C7 1.32 7 2.64 7 4 C4.03 3.505 4.03 3.505 1 3 C0.67 2.01 0.34 1.02 0 0 Z " fill="#0B1324" transform="translate(572,254)"/>
<path d="M0 0 C2.475 0.495 2.475 0.495 5 1 C5.33 2.32 5.66 3.64 6 5 C4.68 5 3.36 5 2 5 C1.34 3.35 0.68 1.7 0 0 Z " fill="#2A2E38" transform="translate(575,266)"/>
<path d="M0 0 C0.66 0 1.32 0 2 0 C1.34 3.96 0.68 7.92 0 12 C-0.33 12 -0.66 12 -1 12 C-1.22162329 10.37675914 -1.42689803 8.751279 -1.625 7.125 C-1.74101562 6.22007812 -1.85703125 5.31515625 -1.9765625 4.3828125 C-1.98429687 3.59648437 -1.99203125 2.81015625 -2 2 C-1.34 1.34 -0.68 0.68 0 0 Z " fill="#151B29" transform="translate(440,257)"/>
<path d="M0 0 C-1.49835228 4.66154042 -4.88463591 5.86610751 -9 8 C-7.70948419 4.12845257 -4.40863591 0 0 0 Z " fill="#171620" transform="translate(179,238)"/>
<path d="M0 0 C1.98 0 3.96 0 6 0 C5.401875 0.268125 4.80375 0.53625 4.1875 0.8125 C1.94430723 1.86047309 1.94430723 1.86047309 0.5625 3.6875 C0.046875 4.120625 -0.46875 4.55375 -1 5 C-3.6875 4.6875 -3.6875 4.6875 -6 4 C-6 3.67 -6 3.34 -6 3 C-4.35 3 -2.7 3 -1 3 C-0.67 2.01 -0.34 1.02 0 0 Z " fill="#313540" transform="translate(616,254)"/>
<path d="M0 0 C1.65 0.33 3.3 0.66 5 1 C4.01 1.33 3.02 1.66 2 2 C2.33 2.99 2.66 3.98 3 5 C0.36 4.67 -2.28 4.34 -5 4 C-4.360625 3.71125 -3.72125 3.4225 -3.0625 3.125 C-0.84793921 2.17176549 -0.84793921 2.17176549 0 0 Z " fill="#3B3F49" transform="translate(551,256)"/>
<path d="M0 0 C0.94875 0.04125 1.8975 0.0825 2.875 0.125 C-1.875 4 -1.875 4 -4.125 5.125 C-4.455 4.135 -4.785 3.145 -5.125 2.125 C-3.125 0.125 -3.125 0.125 0 0 Z " fill="#1D222E" transform="translate(651.125,254.875)"/>
</svg>
